<svg xmlns="http://www.w3.org/2000/svg" width="193" height="48" viewBox="0 0 193 48">
  <g id="Group_13" data-name="Group 13" transform="translate(-91 -450)">
    <g id="Path_36" data-name="Path 36" transform="translate(91 450)" fill="none">
      <path d="M24,0H169a24,24,0,0,1,0,48H24A24,24,0,0,1,24,0Z" stroke="none"/>
      <path d="M 24 2 C 21.02912902832031 2 18.14820861816406 2.581394195556641 15.43721008300781 3.728054046630859 C 12.81770324707031 4.83599853515625 10.46473693847656 6.422554016113281 8.44366455078125 8.443656921386719 C 6.42254638671875 10.46473693847656 4.83599853515625 12.81771087646484 3.728057861328125 15.43721008300781 C 2.581390380859375 18.1482105255127 2 21.02913093566895 2 24 C 2 26.97086906433105 2.581390380859375 29.8517894744873 3.728057861328125 32.56278991699219 C 4.83599853515625 35.18228912353516 6.42254638671875 37.53526306152344 8.44366455078125 39.55634307861328 C 10.46473693847656 41.57744598388672 12.81770324707031 43.16400146484375 15.43721008300781 44.27194595336914 C 18.14820861816406 45.41860580444336 21.02912902832031 46 24 46 L 169 46 C 171.9708709716797 46 174.8517913818359 45.41860580444336 177.5627899169922 44.27194595336914 C 180.1822814941406 43.16400146484375 182.5352630615234 41.57744598388672 184.5563354492188 39.55634307861328 C 186.5774536132813 37.53526306152344 188.1640014648438 35.18228912353516 189.2719421386719 32.56278991699219 C 190.4186096191406 29.8517894744873 191 26.97086906433105 191 24 C 191 21.02913093566895 190.4186096191406 18.1482105255127 189.2719421386719 15.43721008300781 C 188.1640014648438 12.81771087646484 186.5774536132813 10.46473693847656 184.5563354492188 8.443656921386719 C 182.5352630615234 6.422554016113281 180.1822814941406 4.83599853515625 177.5627899169922 3.728054046630859 C 174.8517913818359 2.581394195556641 171.9708709716797 2 169 2 L 24 2 M 24 0 L 169 0 C 182.2548370361328 0 193 10.74515914916992 193 24 C 193 37.25484085083008 182.2548370361328 48 169 48 L 24 48 C 10.74516296386719 48 0 37.25484085083008 0 24 C 0 10.74515914916992 10.74516296386719 0 24 0 Z" stroke="none" fill="#4392f1"/>
    </g>
    <text id="ROZPOCZNIJ" transform="translate(188 483)" fill="#4392f1" font-size="24" font-family="Simplifica" letter-spacing="0.04em"><tspan x="-43.02" y="0">ROZPOCZNIJ</tspan></text>
  </g>
</svg>
